HIERARCHY
ROOT hip
{
  OFFSET 0 0 0
  CHANNELS 6 Xposition Yposition Zposition Zrotation Yrotation Xrotation
  JOINT abdomen
  {
    OFFSET 0 20.6881 -0.73152
    CHANNELS 3 Zrotation Xrotation Yrotation
    JOINT chest
    {
      OFFSET 0 11.7043 -0.48768
      CHANNELS 3 Zrotation Xrotation Yrotation
      JOINT neck
      {
        OFFSET 0 22.1894 -2.19456
        CHANNELS 3 Zrotation Xrotation Yrotation
        JOINT head
        {
          OFFSET -0.24384 7.07133 1.2192
          CHANNELS 3 Zrotation Xrotation Yrotation
          JOINT leftEye
          {
            OFFSET 4.14528 8.04674 8.04672
            CHANNELS 3 Zrotation Xrotation Yrotation
            End Site
            {
              OFFSET 1 0 0
            }
          }
          JOINT rightEye
          {
            OFFSET -3.6576 8.04674 8.04672
            CHANNELS 3 Zrotation Xrotation Yrotation
            End Site
            {
              OFFSET 1 0 0
            }
          }
        }
      }
      JOINT rCollar
      {
        OFFSET -2.68224 19.2634 -4.8768
        CHANNELS 3 Zrotation Xrotation Yrotation
        JOINT rShldr
        {
          OFFSET -8.77824 -1.95073 1.46304
          CHANNELS 3 Zrotation Xrotation Yrotation
          JOINT rForeArm
          {
            OFFSET -28.1742 -1.7115 0.48768
            CHANNELS 3 Zrotation Xrotation Yrotation
            JOINT rHand
            {
              OFFSET -22.5879 0.773209 7.07136
              CHANNELS 3 Zrotation Xrotation Yrotation
              JOINT rThumb1
              {
                OFFSET -1.2192 -0.487915 3.41376
                CHANNELS 3 Zrotation Xrotation Yrotation
                JOINT rThumb2
                {
                  OFFSET -3.37035 -0.52449 3.41376
                  CHANNELS 3 Zrotation Xrotation Yrotation
                  End Site
                  {
                    OFFSET -1.78271 -1.18214 1.43049
                  }
                }
              }
              JOINT rIndex1
              {
                OFFSET -7.75947 0.938293 5.60832
                CHANNELS 3 Zrotation Xrotation Yrotation
                JOINT rIndex2
                {
                  OFFSET -2.54057 -0.884171 1.56538
                  CHANNELS 3 Zrotation Xrotation Yrotation
                  End Site
                  {
                    OFFSET -1.62519 -0.234802 1.16502
                  }
                }
              }
              JOINT rMid1
              {
                OFFSET -8.24714 1.18213 3.41376
                CHANNELS 3 Zrotation Xrotation Yrotation
                JOINT rMid2
                {
                  OFFSET -3.10165 -0.590103 1.0647
                  CHANNELS 3 Zrotation Xrotation Yrotation
                  End Site
                  {
                    OFFSET -2.48547 -0.328903 0.83742
                  }
                }
              }
              JOINT rRing1
              {
                OFFSET -8.82822 0.546677 1.51678
                CHANNELS 3 Zrotation Xrotation Yrotation
                JOINT rRing2
                {
                  OFFSET -2.60934 -0.819778 -0.0198488
                  CHANNELS 3 Zrotation Xrotation Yrotation
                  End Site
                  {
                    OFFSET -2.33842 -0.294052 0.168128
                  }
                }
              }
              JOINT rPinky1
              {
                OFFSET -8.27202 -0.0477905 -0.4584
                CHANNELS 3 Zrotation Xrotation Yrotation
                JOINT rPinky2
                {
                  OFFSET -1.82734 -0.647385 -0.700984
                  CHANNELS 3 Zrotation Xrotation Yrotation
                  End Site
                  {
                    OFFSET -1.69225 -0.51767 -0.607171
                  }
                }
              }
            }
          }
        }
      }
      JOINT lCollar
      {
        OFFSET 2.68224 19.2634 -4.8768
        CHANNELS 3 Zrotation Xrotation Yrotation
        JOINT lShldr
        {
          OFFSET 8.77824 -1.95073 1.46304
          CHANNELS 3 Zrotation Xrotation Yrotation
          JOINT lForeArm
          {
            OFFSET 28.1742 -1.7115 0.48768
            CHANNELS 3 Zrotation Xrotation Yrotation
            JOINT lHand
            {
              OFFSET 22.5879 0.773209 7.07136
              CHANNELS 3 Zrotation Xrotation Yrotation
              JOINT lThumb1
              {
                OFFSET 1.2192 -0.487915 3.41376
                CHANNELS 3 Zrotation Xrotation Yrotation
                JOINT lThumb2
                {
                  OFFSET 3.37035 -0.52449 3.41376
                  CHANNELS 3 Zrotation Xrotation Yrotation
                  End Site
                  {
                    OFFSET 1.78271 -1.18214 1.43049
                  }
                }
              }
              JOINT lIndex1
              {
                OFFSET 7.75947 0.938293 5.60832
                CHANNELS 3 Zrotation Xrotation Yrotation
                JOINT lIndex2
                {
                  OFFSET 2.54057 -0.884171 1.56538
                  CHANNELS 3 Zrotation Xrotation Yrotation
                  End Site
                  {
                    OFFSET 1.62519 -0.234802 1.16502
                  }
                }
              }
              JOINT lMid1
              {
                OFFSET 8.24714 1.18213 3.41376
                CHANNELS 3 Zrotation Xrotation Yrotation
                JOINT lMid2
                {
                  OFFSET 3.10165 -0.590103 1.0647
                  CHANNELS 3 Zrotation Xrotation Yrotation
                  End Site
                  {
                    OFFSET 2.48547 -0.328903 0.83742
                  }
                }
              }
              JOINT lRing1
              {
                OFFSET 8.82822 0.546677 1.51678
                CHANNELS 3 Zrotation Xrotation Yrotation
                JOINT lRing2
                {
                  OFFSET 2.60934 -0.819778 -0.0198488
                  CHANNELS 3 Zrotation Xrotation Yrotation
                  End Site
                  {
                    OFFSET 2.33842 -0.294052 0.168128
                  }
                }
              }
              JOINT lPinky1
              {
                OFFSET 8.27202 -0.0477905 -0.4584
                CHANNELS 3 Zrotation Xrotation Yrotation
                JOINT lPinky2
                {
                  OFFSET 1.82734 -0.647385 -0.700984
                  CHANNELS 3 Zrotation Xrotation Yrotation
                  End Site
                  {
                    OFFSET 1.69225 -0.51767 -0.607171
                  }
                }
              }
            }
          }
        }
      }
    }
  }
  JOINT rButtock
  {
    OFFSET -8.77824 4.35084 1.2192
    CHANNELS 3 Zrotation Xrotation Yrotation
    JOINT rThigh
    {
      OFFSET 0 -1.70687 -2.19456
      CHANNELS 3 Zrotation Xrotation Yrotation
      JOINT rShin
      {
        OFFSET 0 -36.8199 0.73152
        CHANNELS 3 Zrotation Xrotation Yrotation
        JOINT rFoot
        {
          OFFSET 0.73152 -45.1104 -5.12064
          CHANNELS 3 Zrotation Xrotation Yrotation
          End Site
          {
            OFFSET -1.1221 -3.69964 12.103
          }
        }
      }
    }
  }
  JOINT lButtock
  {
    OFFSET 8.77824 4.35084 1.2192
    CHANNELS 3 Zrotation Xrotation Yrotation
    JOINT lThigh
    {
      OFFSET 0 -1.70687 -2.19456
      CHANNELS 3 Zrotation Xrotation Yrotation
      JOINT lShin
      {
        OFFSET 0 -36.8199 0.73152
        CHANNELS 3 Zrotation Xrotation Yrotation
        JOINT lFoot
        {
          OFFSET -0.73152 -45.1104 -5.12064
          CHANNELS 3 Zrotation Xrotation Yrotation
          End Site
          {
            OFFSET 1.1221 -3.69964 12.103
          }
        }
      }
    }
  }
}
MOTION
Frames:	4
Frame Time:	0.00833333
58.3045 83.0696 223.09 0.0 0.0 0.0 -3.29165 -0.00200253 -0.0897133 -0.910502 0.0108246 -0.157567 -4.94932e-14 0.0 4.96962e-17 -1.47681e-13 3.18055e-15 1.95679e-16 -0.0 0.0 0.0 -0.0 0.0 0.0 -2.45527e-14 -1.18028e-16 3.97569e-16 -5.17776e-13 -2.47238e-15 -5.96354e-16 -8.91897e-12 2.59354e-12 5.725e-14 -1.02301e-10 -3.13705e-12 -6.67917e-14 -2.41277e-10 -1.1827e-12 2.8625e-14 -4.16685e-10 -2.0451e-12 5.64548e-14 -2.41273e-10 -1.18356e-12 2.22639e-14 7.73091 5.47488 0.417314 -2.41277e-10 -1.18317e-12 2.8625e-14 2.90554 0.965183 0.102902 -2.41274e-10 -1.18297e-12 3.10104e-14 10.2786 0.731801 0.0259123 -2.41284e-10 -1.17999e-12 5.08889e-14 2.22167 -0.733487 -0.20892 -2.47475e-14 -1.18223e-16 -9.93923e-17 -5.18997e-13 -2.4786e-15 -1.78906e-15 -8.95088e-12 -2.75396e-12 1.27222e-13 -1.02232e-10 2.21143e-12 -9.85972e-14 -2.41195e-10 -1.18171e-12 5.08889e-14 -4.16525e-10 -2.0451e-12 9.30312e-14 -2.41199e-10 -1.18237e-12 6.36111e-14 -7.73091 5.47488 -0.417314 -2.41194e-10 -1.18187e-12 5.40694e-14 -2.90554 0.965183 -0.102902 -2.41195e-10 -1.18158e-12 5.24792e-14 -10.2786 0.731801 -0.0259123 -2.41189e-10 -1.17999e-12 3.81667e-14 -2.22167 -0.733487 0.20892 -2.03217e-16 0.0 -3.88251e-19 -2.14008 -1.93291 0.01836 -0.00781195 -2.07877 -0.0636722 -0.356595 4.00069 0.117376 2.03217e-16 0.0 3.88251e-19 -2.88034 -9.67723 0.338944 -0.0100232 11.9465 -0.261583 0.45811 -2.2801 -0.00591976
57.2344 79.5686 211.135 -174.269 -26.7424 -164.766 2.28758 -5.15882 -0.0274978 -1.50876 0.742384 -0.467599 4.90154 1.5939 4.58004 -5.86905 0.701018 8.03077 -0.0 0.0 0.0 -0.0 0.0 0.0 -6.21799e-14 -3.35845e-14 1.79566e-15 19.1434 3.64979 -1.61476 -3.74163 -1.61486 5.93341 0.000201066 -0.342402 -0.0481189 5.64327e-10 -1.52193e-09 1.85136e-10 9.77223e-10 -2.63418e-09 3.17774e-10 5.64332e-10 -1.52193e-09 1.85127e-10 7.73091 5.47488 0.417314 5.6433e-10 -1.52194e-09 1.85137e-10 2.90554 0.965183 0.102902 5.64332e-10 -1.52193e-09 1.85135e-10 10.2786 0.731801 0.0259123 5.64321e-10 -1.52193e-09 1.85151e-10 2.22167 -0.733487 -0.20892 -6.23356e-14 -3.35901e-14 1.35422e-15 -20.0422 17.2707 -0.0959125 5.64946 -2.93486 -8.38779 -0.287887 -11.9513 1.55071 4.08722e-10 4.88277e-10 -9.89702e-10 7.34781e-10 8.80942e-10 -1.68703e-09 4.08719e-10 4.88277e-10 -9.8969e-10 -7.73091 5.47488 -0.417314 4.08723e-10 4.88277e-10 -9.89701e-10 -2.90554 0.965183 -0.102902 4.0872e-10 4.88278e-10 -9.89701e-10 -10.2786 0.731801 -0.0259123 4.08726e-10 4.88279e-10 -9.89711e-10 -2.22167 -0.733487 0.20892 -2.03217e-16 0.0 -3.88251e-19 0.83864 -11.1713 3.90333 -0.00209961 6.92669 0.0693791 -0.403847 -0.72553 -0.813725 2.03217e-16 0.0 3.88251e-19 0.597258 -20.9794 -3.63484 0.0593394 19.5413 -0.303828 0.873946 -3.36204 3.5832
57.1126 79.6755 211.075 -174.184 -26.2822 -164.603 8.20405 -10.6063 0.0451218 -2.13347 1.51369 -0.793928 9.81165 3.25985 9.43677 -12.2964 1.37638 16.5328 -0.0 0.0 0.0 -0.0 0.0 0.0 -1.03945e-13 -7.21551e-14 -1.13369e-15 39.6133 7.52027 -3.33298 -7.34411 -3.26983 12.2347 -0.000242839 -0.719969 -0.101186 1.4358e-09 -3.2487e-09 3.80164e-10 2.48517e-09 -5.62295e-09 6.52334e-10 1.43581e-09 -3.2487e-09 3.80154e-10 7.73091 5.47488 0.417314 1.43581e-09 -3.2487e-09 3.80168e-10 2.90554 0.965183 0.102902 1.43581e-09 -3.2487e-09 3.8016e-10 10.2786 0.731801 0.0259123 1.43579e-09 -3.2487e-09 3.80171e-10 2.22167 -0.733487 -0.20892 -1.04059e-13 -7.21667e-14 -1.51573e-15 -41.1529 35.5338 -0.227739 10.6976 -5.8278 -17.3246 0.174456 -24.5527 3.43117 1.1183e-09 1.02881e-09 -2.08904e-09 1.99215e-09 1.85737e-09 -3.56118e-09 1.11829e-09 1.02881e-09 -2.08903e-09 -7.73091 5.47488 -0.417314 1.1183e-09 1.02881e-09 -2.08904e-09 -2.90554 0.965183 -0.102902 1.11829e-09 1.02881e-09 -2.08904e-09 -10.2786 0.731801 -0.0259123 1.1183e-09 1.02881e-09 -2.08905e-09 -2.22167 -0.733487 0.20892 -2.03217e-16 0.0 -3.88251e-19 5.43918 -20.7872 8.4423 -0.0426747 16.4649 0.218748 -0.629246 -5.69905 -1.85375 2.03217e-16 0.0 3.88251e-19 2.25191 -32.7077 -8.69778 0.147769 27.6224 -0.361191 1.46403 -4.45838 7.44373
56.9931 79.7784 211.023 -174.111 -25.8724 -164.435 13.4804 -15.4724 0.100925 -2.6815 2.20518 -1.08835 13.9462 4.65954 13.7812 -18.1777 1.93882 24.1052 -0.0 0.0 0.0 -0.0 0.0 0.0 -1.37434e-13 -1.00517e-13 4.59185e-15 58.0562 10.9143 -4.92372 -10.2367 -4.63714 17.8535 -0.0011224 -1.0272 -0.144377 2.17554e-09 -4.56343e-09 5.5535e-10 3.76504e-09 -7.89846e-09 9.5321e-10 2.17554e-09 -4.56344e-09 5.55338e-10 7.73091 5.47488 0.417314 2.17554e-09 -4.56344e-09 5.55355e-10 2.90554 0.965183 0.102902 2.17554e-09 -4.56344e-09 5.55343e-10 10.2786 0.731801 0.0259123 2.17553e-09 -4.56344e-09 5.5535e-10 2.22167 -0.733487 -0.20892 -1.37512e-13 -1.00534e-13 4.26144e-15 -59.8627 51.8113 -0.444423 14.4415 -8.05134 -25.398 1.45623 -35.7362 5.61004 1.70856e-09 1.46719e-09 -2.96921e-09 3.03739e-09 2.64692e-09 -5.06128e-09 1.70855e-09 1.4672e-09 -2.9692e-09 -7.73091 5.47488 -0.417314 1.70856e-09 1.4672e-09 -2.96921e-09 -2.90554 0.965183 -0.102902 1.70855e-09 1.4672e-09 -2.96921e-09 -10.2786 0.731801 -0.0259123 1.70856e-09 1.4672e-09 -2.96921e-09 -2.22167 -0.733487 0.20892 -2.03217e-16 0.0 -3.88251e-19 10.9921 -29.075 13.1297 -0.12544 24.9372 0.368207 -0.963918 -10.167 -2.71787 2.03217e-16 0.0 3.88251e-19 1.37879 -42.7283 -14.8465 0.242134 34.7307 -0.422406 2.11076 -5.44814 10.7922
